<?xml version="1.0" encoding="UTF-8"?>
<!DOCTYPE svg PUBLIC "-//W3C//DTD SVG 1.1//EN" "http://www.w3.org/Graphics/SVG/1.1/DTD/svg11.dtd">
<svg xmlns="http://www.w3.org/2000/svg" version="1.1" width="300px" height="300px" style="shape-rendering:geometricPrecision; text-rendering:geometricPrecision; image-rendering:optimizeQuality; fill-rule:evenodd; clip-rule:evenodd" xmlns:xlink="http://www.w3.org/1999/xlink">
<g><path style="opacity:0.951" fill="#667085" d="M 133.5,24.5 C 189.221,20.4407 231.388,42.1073 260,89.5C 278.194,127.033 279.194,165.033 263,203.5C 235.26,254.826 192.094,278.326 133.5,274C 79.335,264.834 44.1683,234.001 28,181.5C 17.2833,131.995 30.1166,89.8283 66.5,55C 85.907,38.366 108.24,28.1994 133.5,24.5 Z M 138.5,37.5 C 185.216,35.1057 221.049,53.439 246,92.5C 268.893,136.218 266.226,178.218 238,218.5C 205.856,255.991 165.689,268.824 117.5,257C 71.6912,240.848 45.1912,208.682 38,160.5C 35.1182,113.761 53.2848,77.9278 92.5,53C 106.915,44.6954 122.248,39.5288 138.5,37.5 Z"/></g>
<g><path style="opacity:0.966" fill="#667084" d="M 106.5,105.5 C 124.777,104.937 132.61,113.604 130,131.5C 123.044,144.022 113.211,146.855 100.5,140C 89.8333,129.667 89.8333,119.333 100.5,109C 102.432,107.541 104.432,106.375 106.5,105.5 Z"/></g>
<g><path style="opacity:0.966" fill="#667084" d="M 181.5,105.5 C 199.777,104.937 207.61,113.604 205,131.5C 198.044,144.022 188.211,146.855 175.5,140C 164.833,129.667 164.833,119.333 175.5,109C 177.432,107.541 179.432,106.375 181.5,105.5 Z"/></g>
<g><path style="opacity:0.943" fill="#667085" d="M 98.5,185.5 C 104.16,184.831 108.827,186.664 112.5,191C 136.359,201.755 160.359,202.088 184.5,192C 187.672,190.248 190.672,188.248 193.5,186C 202.248,184.746 205.081,188.246 202,196.5C 189.502,206.002 175.336,211.168 159.5,212C 138.831,214.133 119.497,210.133 101.5,200C 94.9504,196.187 93.9504,191.353 98.5,185.5 Z"/></g>
</svg>
