<?xml version="1.0" encoding="UTF-8"?>
<!DOCTYPE svg PUBLIC "-//W3C//DTD SVG 1.1//EN" "http://www.w3.org/Graphics/SVG/1.1/DTD/svg11.dtd">
<svg xmlns="http://www.w3.org/2000/svg" version="1.1" width="300px" height="300px" style="shape-rendering:geometricPrecision; text-rendering:geometricPrecision; image-rendering:optimizeQuality; fill-rule:evenodd; clip-rule:evenodd" xmlns:xlink="http://www.w3.org/1999/xlink">
<g><path style="opacity:0.949" fill="#5d6679" d="M 60.5,22.5 C 93.1684,22.3334 125.835,22.5 158.5,23C 163.833,26.6667 163.833,30.3333 158.5,34C 126.167,34.3333 93.8333,34.6667 61.5,35C 61,35.5 60.5,36 60,36.5C 59.3333,113.167 59.3333,189.833 60,266.5C 60.5,267 61,267.5 61.5,268C 94.1667,268.333 126.833,268.667 159.5,269C 163.367,272.418 163.367,275.751 159.5,279C 125.5,279.667 91.5,279.667 57.5,279C 53.3333,277.5 50.5,274.667 49,270.5C 47.3422,192.224 47.0089,113.89 48,35.5C 49.6823,28.6529 53.849,24.3196 60.5,22.5 Z"/></g>
<g><path style="opacity:0.949" fill="#5d6679" d="M 190.5,89.5 C 192.989,89.2978 195.323,89.7978 197.5,91C 215.638,110.138 234.138,128.972 253,147.5C 255,150.167 255,152.833 253,155.5C 233.595,175.407 213.762,194.74 193.5,213.5C 187.539,212.216 186.039,208.883 189,203.5C 204.196,188.638 219.029,173.471 233.5,158C 190.833,157.667 148.167,157.333 105.5,157C 100.586,153.829 100.253,150.163 104.5,146C 147.833,145.667 191.167,145.333 234.5,145C 219.333,129.833 204.167,114.667 189,99.5C 186.729,95.6965 187.229,92.3632 190.5,89.5 Z"/></g>
</svg>
