<?xml version="1.0" encoding="UTF-8"?>
<!DOCTYPE svg PUBLIC "-//W3C//DTD SVG 1.1//EN" "http://www.w3.org/Graphics/SVG/1.1/DTD/svg11.dtd">
<svg xmlns="http://www.w3.org/2000/svg" version="1.1" width="300px" height="300px" style="shape-rendering:geometricPrecision; text-rendering:geometricPrecision; image-rendering:optimizeQuality; fill-rule:evenodd; clip-rule:evenodd" xmlns:xlink="http://www.w3.org/1999/xlink">
<g><path style="opacity:0.954" fill="#667085" d="M 50.5,42.5 C 74.2245,41.9872 97.8912,42.8205 121.5,45C 133.662,47.0128 142.995,53.1795 149.5,63.5C 157.878,51.3063 169.545,44.8063 184.5,44C 205.815,42.5559 227.149,42.2226 248.5,43C 259.155,42.9918 265.655,48.1585 268,58.5C 268.667,106.5 268.667,154.5 268,202.5C 266.954,211.213 262.121,216.379 253.5,218C 229.833,218.333 206.167,218.667 182.5,219C 166.397,222.929 157.73,233.096 156.5,249.5C 151.833,249.5 147.167,249.5 142.5,249.5C 141.27,233.096 132.603,222.929 116.5,219C 93.1667,218.667 69.8333,218.333 46.5,218C 37.7875,216.954 32.6208,212.121 31,203.5C 30.3333,155.167 30.3333,106.833 31,58.5C 33.5057,48.1507 40.0057,42.8174 50.5,42.5 Z M 47.5,56.5 C 68.5026,56.3334 89.5026,56.5 110.5,57C 131.478,57.6452 141.978,68.4786 142,89.5C 142.833,131.837 142.667,174.171 141.5,216.5C 135.085,211.126 127.752,207.626 119.5,206C 96.5,205.667 73.5,205.333 50.5,205C 46.0004,205.167 43.8338,203 44,198.5C 43.3333,153.167 43.3333,107.833 44,62.5C 44.0072,59.6901 45.1738,57.6901 47.5,56.5 Z M 157.5,216.5 C 156.502,180.337 156.168,144.004 156.5,107.5C 155.869,95.9659 157.036,84.6325 160,73.5C 162.5,67 167,62.5 173.5,60C 178.708,58.3585 184.041,57.3585 189.5,57C 210.167,56.3333 230.833,56.3333 251.5,57C 253.887,57.9761 255.054,59.8094 255,62.5C 255.667,107.833 255.667,153.167 255,198.5C 255.167,203 253,205.166 248.5,205C 225.167,205.333 201.833,205.667 178.5,206C 170.42,207.515 163.42,211.015 157.5,216.5 Z"/></g>
<g><path style="opacity:0.251" fill="#687082" d="M 156.5,107.5 C 156.168,144.004 156.502,180.337 157.5,216.5C 157.44,217.043 157.107,217.376 156.5,217.5C 155.17,180.669 155.17,144.002 156.5,107.5 Z"/></g>
</svg>
