<?xml version="1.0" encoding="UTF-8"?>
<!DOCTYPE svg PUBLIC "-//W3C//DTD SVG 1.1//EN" "http://www.w3.org/Graphics/SVG/1.1/DTD/svg11.dtd">
<svg xmlns="http://www.w3.org/2000/svg" version="1.1" width="300px" height="300px" style="shape-rendering:geometricPrecision; text-rendering:geometricPrecision; image-rendering:optimizeQuality; fill-rule:evenodd; clip-rule:evenodd" xmlns:xlink="http://www.w3.org/1999/xlink">
<g><path style="opacity:0.982" fill="#5d6679" d="M 141.5,26.5 C 153.652,24.5357 164.319,27.5357 173.5,35.5C 203.151,66.9847 232.984,98.318 263,129.5C 265.838,133.172 268.171,137.172 270,141.5C 271.639,175.786 271.973,210.119 271,244.5C 267.473,258.693 258.64,267.527 244.5,271C 181.167,271.667 117.833,271.667 54.5,271C 40.3067,267.473 31.4733,258.64 28,244.5C 27.3333,211.5 27.3333,178.5 28,145.5C 29.6123,139.609 32.2789,134.275 36,129.5C 67.1943,96.9735 98.361,64.4735 129.5,32C 133.481,29.8381 137.481,28.0048 141.5,26.5 Z M 146.5,45.5 C 150.41,45.2628 154.077,46.0961 157.5,48C 187.667,79.5 217.833,111 248,142.5C 250.146,145.126 251.479,148.126 252,151.5C 252.667,180.833 252.667,210.167 252,239.5C 250.5,246.333 246.333,250.5 239.5,252C 221.17,252.5 202.836,252.667 184.5,252.5C 184.968,230.434 184.468,208.434 183,186.5C 180.778,182.612 177.612,179.779 173.5,178C 157.5,177.333 141.5,177.333 125.5,178C 121.388,179.779 118.222,182.612 116,186.5C 114.532,208.434 114.032,230.434 114.5,252.5C 96.1636,252.667 77.8303,252.5 59.5,252C 52.6667,250.5 48.5,246.333 47,239.5C 46.3333,209.833 46.3333,180.167 47,150.5C 47.8061,147.554 49.1395,144.888 51,142.5C 81.1667,111 111.333,79.5 141.5,48C 143.315,47.2432 144.981,46.4098 146.5,45.5 Z M 134.5,196.5 C 144.5,196.5 154.5,196.5 164.5,196.5C 164.5,215.167 164.5,233.833 164.5,252.5C 154.5,252.5 144.5,252.5 134.5,252.5C 134.5,233.833 134.5,215.167 134.5,196.5 Z"/></g>
</svg>
