<?xml version="1.0" encoding="UTF-8"?>
<!DOCTYPE svg PUBLIC "-//W3C//DTD SVG 1.1//EN" "http://www.w3.org/Graphics/SVG/1.1/DTD/svg11.dtd">
<svg xmlns="http://www.w3.org/2000/svg" version="1.1" width="300px" height="300px" style="shape-rendering:geometricPrecision; text-rendering:geometricPrecision; image-rendering:optimizeQuality; fill-rule:evenodd; clip-rule:evenodd" xmlns:xlink="http://www.w3.org/1999/xlink">
<g><path style="opacity:0.959" fill="#5d6679" d="M 77.5,33.5 C 80.9705,32.8748 83.8038,33.8748 86,36.5C 88.3333,45.1667 90.6667,53.8333 93,62.5C 93.7247,63.0585 94.5581,63.3918 95.5,63.5C 114.345,58.4143 133.178,53.4143 152,48.5C 155.333,49.1667 157.333,51.1667 158,54.5C 161.403,69.1218 165.57,83.4551 170.5,97.5C 185.161,93.5013 199.828,89.5013 214.5,85.5C 219.318,86.4905 221.818,89.4905 222,94.5C 228.932,121.292 236.265,147.959 244,174.5C 251.595,171.642 259.428,170.142 267.5,170C 268.333,170.833 269.167,171.667 270,172.5C 272.156,180.124 274.156,187.79 276,195.5C 277.015,202.97 274.181,208.47 267.5,212C 242.543,218.822 217.543,225.489 192.5,232C 187.895,259.134 172.229,269.468 145.5,263C 138.721,259.888 133.555,255.055 130,248.5C 124.737,250.857 119.237,251.69 113.5,251C 95.5943,189.445 78.5943,127.611 62.5,65.5C 55.4153,66.5206 48.4153,68.0206 41.5,70C 27.4945,71.9954 21.6612,66.1621 24,52.5C 25.8917,48.9421 28.7251,46.4421 32.5,45C 47.6641,41.293 62.6641,37.4597 77.5,33.5 Z M 72.5,46.5 C 76.0379,46.2153 77.8712,47.882 78,51.5C 92.6667,105.5 107.333,159.5 122,213.5C 122.5,215.333 123.667,216.5 125.5,217C 127.557,217.305 129.557,217.305 131.5,217C 127.941,223.571 125.941,230.571 125.5,238C 123.888,238.72 122.388,238.554 121,237.5C 104.489,176.456 87.8224,115.456 71,54.5C 69.3523,52.9716 67.3523,52.3049 65,52.5C 55.1596,54.2103 45.493,56.5436 36,59.5C 35.3076,58.9747 34.8076,58.3081 34.5,57.5C 47.1317,53.5109 59.7984,49.8442 72.5,46.5 Z M 143.5,62.5 C 145.144,62.2865 146.644,62.6198 148,63.5C 151.804,75.7151 154.804,88.0485 157,100.5C 140.333,105.167 123.667,109.833 107,114.5C 103.81,101.739 100.31,89.0727 96.5,76.5C 112.176,71.6668 127.843,67.0002 143.5,62.5 Z M 207.5,99.5 C 208.833,99.5 210.167,99.5 211.5,99.5C 217.8,125.533 224.8,151.366 232.5,177C 199.005,186.248 165.505,195.415 132,204.5C 124.028,178.27 117.194,151.937 111.5,125.5C 143.611,116.808 175.611,108.141 207.5,99.5 Z M 258.5,182.5 C 259.75,182.577 260.583,183.244 261,184.5C 262.089,189.021 263.255,193.521 264.5,198C 264.22,199.395 263.553,200.562 262.5,201.5C 237.955,208.094 213.455,214.761 189,221.5C 185.888,214.721 181.055,209.555 174.5,206C 202.472,197.842 230.472,190.009 258.5,182.5 Z M 157.5,213.5 C 175.341,216.189 181.841,226.189 177,243.5C 167.022,256.414 155.688,257.747 143,247.5C 135.292,234.928 137.458,224.428 149.5,216C 152.31,215.218 154.977,214.384 157.5,213.5 Z"/></g>
</svg>
