<?xml version="1.0" standalone="no"?>
<!DOCTYPE svg PUBLIC "-//W3C//DTD SVG 20010904//EN"
 "http://www.w3.org/TR/2001/REC-SVG-20010904/DTD/svg10.dtd">
<svg version="1.0" xmlns="http://www.w3.org/2000/svg"
 width="312.000000pt" height="300.000000pt" viewBox="0 0 312.000000 300.000000"
 preserveAspectRatio="xMidYMid meet">

<g transform="translate(0.000000,300.000000) scale(0.100000,-0.100000)"
fill="#000000" stroke="none">
<path d="M1360 2965 c-298 -51 -564 -182 -769 -380 -195 -188 -356 -451 -412
-675 -42 -166 -66 -370 -49 -414 l10 -26 200 0 201 0 24 26 c34 37 32 69 -9
110 -34 34 -35 34 -125 34 -50 0 -91 1 -91 3 0 1 6 39 14 83 49 276 219 568
434 747 181 150 380 244 597 281 134 24 125 28 125 -58 0 -66 3 -78 26 -105
33 -40 83 -43 119 -6 23 22 25 32 25 117 l0 93 -97 92 c-108 102 -99 99 -223
78z"/>
<path d="M2063 2854 c-21 -32 -29 -124 -14 -153 7 -11 44 -37 84 -57 183 -92
367 -246 478 -400 129 -179 223 -422 236 -606 l6 -88 -97 0 c-90 0 -99 -2
-121 -25 -34 -33 -34 -87 0 -120 22 -23 32 -25 120 -25 112 0 106 10 70 -134
-60 -232 -157 -404 -337 -592 -194 -202 -429 -316 -765 -369 l-43 -7 0 94 c0
90 -1 95 -28 121 -37 36 -75 35 -113 -2 -28 -28 -29 -33 -29 -123 l0 -93 103
-103 103 -103 70 11 c343 54 627 193 847 414 168 168 278 342 356 562 59 167
75 270 75 469 -1 149 -4 183 -28 280 -67 276 -167 475 -340 678 -114 133 -292
266 -472 353 -107 51 -137 55 -161 18z"/>
<path d="M1496 2346 c-60 -22 -108 -68 -139 -129 l-28 -57 -122 -1 c-67 -1
-126 -2 -132 -4 -5 -1 -49 -3 -96 -3 -97 -2 -135 -20 -176 -80 -81 -121 11
-301 154 -302 l32 0 3 -422 c3 -398 4 -425 23 -463 26 -53 96 -120 143 -137
55 -19 811 -19 866 1 49 17 121 82 149 136 21 39 22 51 25 463 l3 422 30 0
c16 0 46 7 67 15 144 61 163 250 34 340 l-44 30 -213 0 c-117 0 -215 2 -217 5
-2 3 -11 21 -20 40 -43 95 -126 151 -233 157 -45 2 -84 -2 -109 -11z m173
-153 c49 -37 39 -43 -73 -43 -87 0 -106 3 -106 15 0 8 17 24 38 35 44 24 102
21 141 -7z m599 -195 c17 -17 15 -54 -4 -72 -14 -14 -88 -16 -669 -16 -581 0
-655 2 -669 16 -19 18 -21 55 -4 72 17 17 1329 17 1346 0z m-210 -616 c1 -241
-2 -398 -8 -422 -7 -27 -21 -45 -44 -59 -32 -20 -47 -21 -415 -21 -343 0 -384
2 -408 17 -51 34 -53 51 -53 471 0 214 3 392 7 395 3 4 212 6 462 5 l456 -3 3
-383z"/>
<path d="M1289 1625 c-15 -8 -28 -22 -31 -32 -2 -10 -2 -136 0 -281 5 -290 5
-292 67 -292 24 0 39 7 54 26 20 25 21 39 21 281 l0 255 -29 29 c-33 32 -44
34 -82 14z"/>
<path d="M1550 1620 c-11 -11 -22 -30 -25 -42 -3 -13 -5 -134 -3 -270 3 -225
5 -248 22 -267 28 -31 79 -28 105 5 20 25 21 39 21 275 0 263 -4 288 -47 308
-34 16 -50 14 -73 -9z"/>
<path d="M1832 1630 c-12 -5 -27 -21 -32 -35 -6 -15 -10 -136 -10 -276 0 -288
3 -299 71 -299 63 0 66 10 72 293 6 265 2 297 -39 316 -29 13 -31 13 -62 1z"/>
<path d="M232 1187 c-65 -24 -66 -51 -8 -191 91 -216 177 -346 331 -501 119
-118 223 -194 360 -263 166 -83 356 -143 392 -123 36 19 59 155 30 179 -7 6
-60 27 -118 46 -280 91 -513 264 -667 495 -72 108 -99 158 -143 268 -17 43
-35 84 -41 91 -13 15 -92 15 -136 -1z"/>
</g>
</svg>
