<?xml version="1.0" encoding="UTF-8"?>
<!DOCTYPE svg PUBLIC "-//W3C//DTD SVG 1.1//EN" "http://www.w3.org/Graphics/SVG/1.1/DTD/svg11.dtd">
<svg xmlns="http://www.w3.org/2000/svg" version="1.1" width="300px" height="300px" style="shape-rendering:geometricPrecision; text-rendering:geometricPrecision; image-rendering:optimizeQuality; fill-rule:evenodd; clip-rule:evenodd" xmlns:xlink="http://www.w3.org/1999/xlink">
<g><path style="opacity:0.962" fill="#5d6679" d="M 143.5,42.5 C 184.943,42.4664 211.776,62.1331 224,101.5C 226.146,116.812 228.146,132.145 230,147.5C 231.262,153.285 232.928,158.952 235,164.5C 241.267,176.424 247.933,188.091 255,199.5C 257.299,203.732 258.799,208.232 259.5,213C 258.106,221.502 253.439,227.168 245.5,230C 227.867,231.231 210.2,231.898 192.5,232C 187.819,248.681 177.485,260.348 161.5,267C 139.827,271.667 123.327,264.5 112,245.5C 109.967,241.063 108.133,236.563 106.5,232C 88.7995,231.898 71.1329,231.231 53.5,230C 45.0834,227.537 40.4167,221.87 39.5,213C 41.0173,206.461 43.5173,200.294 47,194.5C 57.2847,180.262 64.618,164.595 69,147.5C 70.8542,132.145 72.8542,116.812 75,101.5C 85.2168,67.002 108.05,47.3353 143.5,42.5 Z M 139.5,56.5 C 166.297,54.153 187.464,63.8197 203,85.5C 206.78,91.7259 209.447,98.3926 211,105.5C 212.939,123.616 215.605,141.616 219,159.5C 221.113,166.392 223.78,173.059 227,179.5C 233.252,189.67 239.252,200.003 245,210.5C 245.756,212.809 245.256,214.809 243.5,216.5C 181.207,217.663 118.874,217.829 56.5,217C 53.9201,215.519 53.0868,213.352 54,210.5C 58.4947,201.507 63.4947,192.84 69,184.5C 73.4912,176.519 77.1578,168.185 80,159.5C 83.3948,141.616 86.0615,123.616 88,105.5C 95.3061,78.6916 112.473,62.3582 139.5,56.5 Z M 120.5,232.5 C 139.662,231.338 158.996,231.171 178.5,232C 173.418,245.59 163.751,253.423 149.5,255.5C 139.657,254.829 131.824,250.495 126,242.5C 124.392,238.944 122.559,235.611 120.5,232.5 Z"/></g>
</svg>
