<?xml version="1.0" encoding="UTF-8"?>
<!DOCTYPE svg PUBLIC "-//W3C//DTD SVG 1.1//EN" "http://www.w3.org/Graphics/SVG/1.1/DTD/svg11.dtd">
<svg xmlns="http://www.w3.org/2000/svg" version="1.1" width="300px" height="300px" style="shape-rendering:geometricPrecision; text-rendering:geometricPrecision; image-rendering:optimizeQuality; fill-rule:evenodd; clip-rule:evenodd" xmlns:xlink="http://www.w3.org/1999/xlink">
<g><path style="opacity:0.966" fill="#5d6679" d="M 133.5,24.5 C 189.221,20.4407 231.388,42.1073 260,89.5C 277.036,124.299 279.036,159.966 266,196.5C 239.599,252.296 195.432,278.13 133.5,274C 72.6667,262.5 36.5,226.333 25,165.5C 20.4529,109.757 41.9529,67.59 89.5,39C 103.587,32.0261 118.254,27.1928 133.5,24.5 Z M 138.5,37.5 C 194.166,36.0632 233,60.7299 255,111.5C 267.403,149.295 262.07,184.295 239,216.5C 227.915,203.078 213.748,195.245 196.5,193C 162.803,192.05 129.137,192.383 95.5,194C 81.3509,197.81 69.5176,205.31 60,216.5C 38.3765,186.433 32.3765,153.433 42,117.5C 58.3426,71.6506 90.5093,44.9839 138.5,37.5 Z M 145.5,93.5 C 166.95,93.4501 180.45,103.783 186,124.5C 187.661,146.686 177.828,160.853 156.5,167C 140.272,169.3 127.438,163.8 118,150.5C 107.973,129.775 112.14,112.609 130.5,99C 135.299,96.2375 140.299,94.4042 145.5,93.5 Z M 99.5,206.5 C 132.835,206.333 166.168,206.5 199.5,207C 211.992,210.087 221.992,216.92 229.5,227.5C 195.764,259.932 156.431,269.098 111.5,255C 95.7504,249.049 81.9171,240.216 70,228.5C 76.7162,217.202 86.5495,209.868 99.5,206.5 Z"/></g>
<g><path style="opacity:0.966" fill="#5d6679" d="M 140.5,80.5 C 165.764,78.3762 184.264,88.3762 196,110.5C 205.553,141.199 196.053,163.699 167.5,178C 142.773,185.535 122.607,179.035 107,158.5C 94.5805,134.554 97.4138,112.721 115.5,93C 123.1,87.2002 131.433,83.0335 140.5,80.5 Z M 145.5,93.5 C 140.299,94.4042 135.299,96.2375 130.5,99C 112.14,112.609 107.973,129.775 118,150.5C 127.438,163.8 140.272,169.3 156.5,167C 177.828,160.853 187.661,146.686 186,124.5C 180.45,103.783 166.95,93.4501 145.5,93.5 Z"/></g>
</svg>
