<?xml version="1.0" encoding="UTF-8"?>
<!DOCTYPE svg PUBLIC "-//W3C//DTD SVG 1.1//EN" "http://www.w3.org/Graphics/SVG/1.1/DTD/svg11.dtd">
<svg xmlns="http://www.w3.org/2000/svg" version="1.1" width="300px" height="300px" style="shape-rendering:geometricPrecision; text-rendering:geometricPrecision; image-rendering:optimizeQuality; fill-rule:evenodd; clip-rule:evenodd" xmlns:xlink="http://www.w3.org/1999/xlink">
<g><path style="opacity:0.989" fill="#5d6679" d="M 56.5,24.5 C 118.168,24.3333 179.834,24.5 241.5,25C 258.557,29.0564 269.39,39.5564 274,56.5C 274.667,118.167 274.667,179.833 274,241.5C 269.944,258.557 259.444,269.39 242.5,274C 180.833,274.667 119.167,274.667 57.5,274C 40.4433,269.944 29.61,259.444 25,242.5C 24.3333,180.833 24.3333,119.167 25,57.5C 29.2409,40.4277 39.7409,29.4277 56.5,24.5 Z M 163.5,72.5 C 162.501,134.998 162.168,197.664 162.5,260.5C 153.833,260.5 145.167,260.5 136.5,260.5C 136.832,214.664 136.499,168.997 135.5,123.5C 135.152,119.655 132.985,117.655 129,117.5C 126.077,117.795 123.743,119.129 122,121.5C 121.5,167.832 121.333,214.165 121.5,260.5C 112.5,260.5 103.5,260.5 94.5,260.5C 94.6666,237.498 94.5,214.498 94,191.5C 89.3333,184.833 84.6667,184.833 80,191.5C 79.5,214.498 79.3334,237.498 79.5,260.5C 69.725,261.476 60.3916,259.976 51.5,256C 44.1623,251.168 39.9956,244.334 39,235.5C 38.0196,176.463 38.3529,117.463 40,58.5C 43.9727,47.4202 51.806,40.9202 63.5,39C 120.833,38.3333 178.167,38.3333 235.5,39C 247.562,40.4425 255.395,46.9425 259,58.5C 260.647,117.463 260.98,176.463 260,235.5C 257.833,249.667 249.667,257.833 235.5,260C 230.177,260.499 224.844,260.666 219.5,260.5C 219.667,225.832 219.5,191.165 219,156.5C 213.833,150.908 209.167,151.241 205,157.5C 204.5,191.832 204.333,226.165 204.5,260.5C 195.5,260.5 186.5,260.5 177.5,260.5C 177.667,196.832 177.5,133.166 177,69.5C 173.756,65.2286 169.922,64.5619 165.5,67.5C 164.05,68.8498 163.383,70.5165 163.5,72.5 Z"/></g>
<g><path style="opacity:0.185" fill="#5f6778" d="M 163.5,72.5 C 163.5,135.5 163.5,198.5 163.5,261.5C 154.167,261.5 144.833,261.5 135.5,261.5C 135.5,215.5 135.5,169.5 135.5,123.5C 136.499,168.997 136.832,214.664 136.5,260.5C 145.167,260.5 153.833,260.5 162.5,260.5C 162.168,197.664 162.501,134.998 163.5,72.5 Z"/></g>
</svg>
