<?xml version="1.0" encoding="UTF-8"?>
<!DOCTYPE svg PUBLIC "-//W3C//DTD SVG 1.1//EN" "http://www.w3.org/Graphics/SVG/1.1/DTD/svg11.dtd">
<svg xmlns="http://www.w3.org/2000/svg" version="1.1" width="300px" height="300px" style="shape-rendering:geometricPrecision; text-rendering:geometricPrecision; image-rendering:optimizeQuality; fill-rule:evenodd; clip-rule:evenodd" xmlns:xlink="http://www.w3.org/1999/xlink">
<g><path style="opacity:0.971" fill="#5d6679" d="M 256.5,272.5 C 235.833,251.167 214.833,230.167 193.5,209.5C 191.914,207.919 190.914,205.919 190.5,203.5C 191.428,202.232 191.595,200.899 191,199.5C 187,195.5 183,191.5 179,187.5C 149.825,211.724 117.325,217.224 81.5,204C 40.0308,183.914 21.1974,150.747 25,104.5C 33.3818,60.4514 59.5485,33.9514 103.5,25C 150.151,20.8987 183.651,39.7321 204,81.5C 217.167,117.312 211.667,149.812 187.5,179C 191.5,183 195.5,187 199.5,191C 203.794,190.407 207.794,191.407 211.5,194C 232.695,214.862 253.529,236.028 274,257.5C 275.997,269.835 270.83,275.335 258.5,274C 257.584,273.722 256.918,273.222 256.5,272.5 Z M 109.5,36.5 C 143.775,35.0507 169.941,48.7174 188,77.5C 205.901,114.926 200.401,148.426 171.5,178C 142.373,201.362 111.04,204.695 77.5,188C 44.6654,166.533 31.8321,136.366 39,97.5C 50.1892,62.8375 73.6892,42.5042 109.5,36.5 Z"/></g>
<g><path style="opacity:0.502" fill="#5e6778" d="M 193.5,209.5 C 214.833,230.167 235.833,251.167 256.5,272.5C 235.251,252.753 214.418,232.42 194,211.5C 193.536,210.906 193.369,210.239 193.5,209.5 Z"/></g>
</svg>
