<?xml version="1.0" encoding="UTF-8"?>
<!DOCTYPE svg PUBLIC "-//W3C//DTD SVG 1.1//EN" "http://www.w3.org/Graphics/SVG/1.1/DTD/svg11.dtd">
<svg xmlns="http://www.w3.org/2000/svg" version="1.1" width="300px" height="300px" style="shape-rendering:geometricPrecision; text-rendering:geometricPrecision; image-rendering:optimizeQuality; fill-rule:evenodd; clip-rule:evenodd" xmlns:xlink="http://www.w3.org/1999/xlink">
<g><path style="opacity:0.977" fill="#5d6679" d="M 143.5,2.5 C 160.391,1.19219 172.891,7.85886 181,22.5C 182.666,29.8451 184.333,37.1785 186,44.5C 189.975,49.3607 194.808,50.5273 200.5,48C 216.414,32.9553 233.414,31.622 251.5,44C 262.609,55.3397 265.442,68.5063 260,83.5C 257.973,88.2155 254.973,92.2155 251,95.5C 247.667,100.5 247.667,105.5 251,110.5C 252.952,112.894 255.452,114.394 258.5,115C 281.491,115.159 294.158,126.659 296.5,149.5C 293.758,173.066 280.425,184.899 256.5,185C 250.264,188.633 248.431,193.799 251,200.5C 266.045,216.414 267.378,233.414 255,251.5C 243.66,262.609 230.494,265.442 215.5,260C 210.785,257.973 206.785,254.973 203.5,251C 196.179,246.797 190.346,248.297 186,255.5C 184.466,287.051 168.299,299.885 137.5,294C 122.213,286.339 114.713,273.839 115,256.5C 111.993,251.274 107.493,249.107 101.5,250C 95.854,253.636 90.1873,257.303 84.5,261C 64.1006,267.319 48.9339,261.152 39,242.5C 33.6643,227.513 36.6643,214.513 48,203.5C 52.2033,196.179 50.7033,190.346 43.5,186C 11.9487,184.466 -0.88465,168.299 5,137.5C 12.6611,122.213 25.1611,114.713 42.5,115C 47.7265,111.993 49.8931,107.493 49,101.5C 45.364,95.854 41.6974,90.1873 38,84.5C 31.6812,64.1006 37.8479,48.9339 56.5,39C 71.487,33.6643 84.487,36.6643 95.5,48C 100.5,51.3333 105.5,51.3333 110.5,48C 112.894,46.0478 114.394,43.5478 115,40.5C 115.091,20.6084 124.591,7.94175 143.5,2.5 Z M 145.5,21.5 C 152.092,20.6404 157.592,22.6404 162,27.5C 164.334,36.1547 166.667,44.8214 169,53.5C 179.465,67.7968 192.965,71.6301 209.5,65C 214.167,61.6667 218.833,58.3333 223.5,55C 238,53.5 244.5,60 243,74.5C 240.72,78.4467 238.053,82.1134 235,85.5C 227.557,98.0566 227.89,110.39 236,122.5C 238.537,125.372 241.37,127.872 244.5,130C 253.512,132.333 262.512,134.666 271.5,137C 279.5,145.333 279.5,153.667 271.5,162C 262.845,164.334 254.179,166.667 245.5,169C 231.203,179.465 227.37,192.965 234,209.5C 237.333,214.167 240.667,218.833 244,223.5C 245.5,238 239,244.5 224.5,243C 220.553,240.72 216.887,238.053 213.5,235C 196.267,225.913 181.767,229.079 170,244.5C 167.667,253.512 165.334,262.512 163,271.5C 154.667,279.5 146.333,279.5 138,271.5C 135.232,265.845 133.898,259.845 134,253.5C 127.121,235.808 114.288,228.641 95.5,232C 93.5,232.667 91.5,233.333 89.5,234C 84.8333,237.333 80.1667,240.667 75.5,244C 61,245.5 54.5,239 56,224.5C 58.2798,220.553 60.9465,216.887 64,213.5C 73.0875,196.267 69.9208,181.767 54.5,170C 45.488,167.667 36.488,165.334 27.5,163C 19.5,154.667 19.5,146.333 27.5,138C 33.1554,135.232 39.1554,133.898 45.5,134C 63.192,127.121 70.3587,114.288 67,95.5C 66.3333,93.5 65.6667,91.5 65,89.5C 61.6667,84.8333 58.3333,80.1667 55,75.5C 53.5,61 60,54.5 74.5,56C 78.4467,58.2798 82.1134,60.9465 85.5,64C 98.0566,71.443 110.39,71.1097 122.5,63C 131.35,54.4652 135.517,43.9652 135,31.5C 137.106,26.5573 140.606,23.224 145.5,21.5 Z M 144.5,121.5 C 166.642,121.475 177.475,132.475 177,154.5C 172.457,171.025 161.624,178.525 144.5,177C 127.975,172.457 120.475,161.624 122,144.5C 125.015,132.319 132.515,124.653 144.5,121.5 Z"/></g>
<g><path style="opacity:0.978" fill="#5d6679" d="M 142.5,102.5 C 161.947,100.977 177.447,107.977 189,123.5C 202.155,149.059 197.655,170.893 175.5,189C 149.941,202.155 128.107,197.655 110,175.5C 96.8448,149.941 101.345,128.107 123.5,110C 129.604,106.583 135.937,104.083 142.5,102.5 Z M 144.5,121.5 C 132.515,124.653 125.015,132.319 122,144.5C 120.475,161.624 127.975,172.457 144.5,177C 161.624,178.525 172.457,171.025 177,154.5C 177.475,132.475 166.642,121.475 144.5,121.5 Z"/></g>
</svg>
